<svg width="64" height="64" viewBox="0 0 64 64" fill="none" xmlns="http://www.w3.org/2000/svg">
<path fill-rule="evenodd" clip-rule="evenodd" d="M52.9803 45.9093C54.933 47.8619 54.933 51.0277 52.9803 52.9804C51.0277 54.933 47.8619 54.933 45.9093 52.9804L32.2224 39.2935L18.5355 52.9804C16.5829 54.933 13.4171 54.933 11.4645 52.9804C9.51185 51.0277 9.51185 47.8619 11.4645 45.9093L25.1513 32.2224L11.4645 18.5355C9.51184 16.5829 9.51184 13.4171 11.4645 11.4645C13.4171 9.51185 16.5829 9.51184 18.5355 11.4645L32.2224 25.1513L45.9093 11.4645C47.8619 9.51184 51.0277 9.51185 52.9804 11.4645C54.933 13.4171 54.933 16.5829 52.9804 18.5355L39.2935 32.2224L52.9803 45.9093Z" fill="black"/>
</svg>
