<svg width="64" height="64" viewBox="0 0 64 64" fill="none" xmlns="http://www.w3.org/2000/svg">
<mask id="mask0_26_2" style="mask-type:alpha" maskUnits="userSpaceOnUse" x="14" y="18" width="32" height="32">
<rect x="14" y="18" width="32" height="32" rx="2" fill="black"/>
</mask>
<g mask="url(#mask0_26_2)">
<path fill-rule="evenodd" clip-rule="evenodd" d="M31.7462 25.9209V25.9209C30.9831 24.5544 29.0169 24.5544 28.2538 25.9209V25.9209L20.229 40.2908C19.6904 41.2552 20.0356 42.4735 21 43.0121V43.0121C21.9644 43.5507 23.1827 43.2055 23.7213 42.2411L24.778 40.3489C25.1313 39.7162 25.7994 39.3241 26.5241 39.3241H33.4758C34.2006 39.3241 34.8686 39.7162 35.222 40.3489L36.2787 42.2411C36.8172 43.2055 38.0356 43.5507 39 43.0121V43.0121C39.9644 42.4735 40.3096 41.2552 39.771 40.2908L31.7462 25.9209ZM30 35.3241C31.0825 35.3241 31.7658 34.1599 31.238 33.2148V33.2148C30.697 32.246 29.303 32.246 28.762 33.2148V33.2148C28.2342 34.1599 28.9175 35.3241 30 35.3241V35.3241Z" fill="black"/>
</g>
<path d="M38.5 25.5L50.5 13.5" stroke="black" stroke-width="6" stroke-linecap="round"/>
<path d="M37 12H50C51.1046 12 52 12.8954 52 14V27" stroke="black" stroke-width="6" stroke-linecap="round"/>
<path fill-rule="evenodd" clip-rule="evenodd" d="M17 23C17 21.8954 17.8954 21 19 21H28C29.1046 21 30 20.1046 30 19V17C30 15.8954 29.1046 15 28 15H16C13.2386 15 11 17.2386 11 20V48C11 50.7614 13.2386 53 16 53H44C46.7614 53 49 50.7614 49 48V36C49 34.8954 48.1046 34 47 34H45C43.8954 34 43 34.8954 43 36V45C43 46.1046 42.1046 47 41 47H19C17.8954 47 17 46.1046 17 45V23Z" fill="black"/>
</svg>
