<svg width="64" height="64" viewBox="0 0 64 64" fill="none" xmlns="http://www.w3.org/2000/svg">
<path fill-rule="evenodd" clip-rule="evenodd" d="M47 23C47 21.8954 46.1046 21 45 21H39C37.8954 21 37 20.1046 37 19V17C37 15.8954 37.8954 15 39 15H48C50.7614 15 53 17.2386 53 20V48C53 50.7614 50.7614 53 48 53H20C17.2386 53 15 50.7614 15 48V39C15 37.8954 15.8954 37 17 37H19C20.1046 37 21 37.8954 21 39V45C21 46.1046 21.8954 47 23 47H45C46.1046 47 47 46.1046 47 45V23Z" fill="black"/>
<mask id="mask0_26_15" style="mask-type:alpha" maskUnits="userSpaceOnUse" x="18" y="18" width="32" height="32">
<rect x="18" y="18" width="32" height="32" rx="2" fill="black"/>
</mask>
<g mask="url(#mask0_26_15)">
<path fill-rule="evenodd" clip-rule="evenodd" d="M35.7462 25.9209C34.9831 24.5544 33.0169 24.5544 32.2538 25.9209L24.229 40.2908C23.6904 41.2552 24.0356 42.4735 25 43.0121C25.9644 43.5507 27.1827 43.2055 27.7213 42.2411L28.778 40.3489C29.1313 39.7162 29.7994 39.3241 30.5241 39.3241H37.4759C38.2006 39.3241 38.8686 39.7162 39.222 40.3489L40.2787 42.2411C40.8172 43.2055 42.0356 43.5507 43 43.0121C43.9644 42.4735 44.3096 41.2552 43.771 40.2908L35.7462 25.9209ZM34 35.3241C35.0825 35.3241 35.7658 34.1599 35.238 33.2148C34.697 32.246 33.303 32.246 32.762 33.2148C32.2342 34.1599 32.9175 35.3241 34 35.3241Z" fill="black"/>
</g>
<path d="M11 11L24 24" stroke="black" stroke-width="6" stroke-linecap="round"/>
<path d="M25.5 10.5L25.5 23.5C25.5 24.6046 24.6046 25.5 23.5 25.5L10.5 25.5" stroke="black" stroke-width="6" stroke-linecap="round"/>
</svg>
