<svg width="64" height="64" viewBox="0 0 64 64" fill="none" xmlns="http://www.w3.org/2000/svg">
<path d="M48.5049 10.1716L50.6262 8.05025L48.5049 10.1716ZM53.8284 15.4951L51.7071 17.6164L53.8284 15.4951ZM52 18.3235V51H58V18.3235H52ZM51 52H13V58H51V52ZM12 51V13H6V51H12ZM13 12H45.6765V6H13V12ZM46.3836 12.2929L51.7071 17.6164L55.9497 13.3738L50.6262 8.05025L46.3836 12.2929ZM45.6765 12C45.9417 12 46.196 12.1054 46.3836 12.2929L50.6262 8.05025C49.3135 6.7375 47.533 6 45.6765 6V12ZM13 52C12.4477 52 12 51.5523 12 51H6C6 54.866 9.134 58 13 58V52ZM52 51C52 51.5523 51.5523 52 51 52V58C54.866 58 58 54.866 58 51H52ZM58 18.3235C58 16.467 57.2625 14.6865 55.9497 13.3738L51.7071 17.6164C51.8946 17.804 52 18.0583 52 18.3235H58ZM12 13C12 12.4477 12.4477 12 13 12V6C9.13401 6 6 9.13401 6 13H12Z" fill="black"/>
<path d="M21 41C21 38.7909 22.7909 37 25 37H39C41.2091 37 43 38.7909 43 41V55H21V41Z" stroke="black" stroke-width="6"/>
<path d="M21 9H43V21C43 23.2091 41.2091 25 39 25H25C22.7909 25 21 23.2091 21 21V9Z" stroke="black" stroke-width="6"/>
</svg>
