<svg width="64" height="64" viewBox="0 0 64 64" fill="none" xmlns="http://www.w3.org/2000/svg">
<path fill-rule="evenodd" clip-rule="evenodd" d="M12 13C12 12.4477 12.4477 12 13 12H35.6765C35.9417 12 36.1961 12.1054 36.3836 12.2929L37.5049 13.4142C37.88 13.7893 38.3887 14 38.9191 14H42.7791C44.1582 14 45.0926 12.611 44.1609 11.5943C44.0922 11.5194 44.0219 11.4459 43.9497 11.3738L40.6262 8.05025C39.3135 6.7375 37.533 6 35.6765 6H13C9.13401 6 6 9.13401 6 13V39C6 42.866 9.13401 46 13 46V46C13.5523 46 14 45.5523 14 45V41C14 40.4477 13.5523 40 13 40V40C12.4477 40 12 39.5523 12 39V13Z" fill="black"/>
<path d="M50.5049 22.1716L52.6262 20.0503L50.5049 22.1716ZM53.8284 25.4951L51.7071 27.6164L53.8284 25.4951ZM52 28.3235V51H58V28.3235H52ZM51 52H25V58H51V52ZM24 51V25H18V51H24ZM25 24H47.6765V18H25V24ZM48.3836 24.2929L51.7071 27.6164L55.9497 23.3738L52.6262 20.0503L48.3836 24.2929ZM47.6765 24C47.9417 24 48.196 24.1054 48.3836 24.2929L52.6262 20.0503C51.3135 18.7375 49.533 18 47.6765 18V24ZM25 52C24.4477 52 24 51.5523 24 51H18C18 54.866 21.134 58 25 58V52ZM52 51C52 51.5523 51.5523 52 51 52V58C54.866 58 58 54.866 58 51H52ZM58 28.3235C58 26.467 57.2625 24.6865 55.9497 23.3738L51.7071 27.6164C51.8946 27.804 52 28.0583 52 28.3235H58ZM24 25C24 24.4477 24.4477 24 25 24V18C21.134 18 18 21.134 18 25H24Z" fill="black"/>
<path d="M31 46C31 43.7909 32.7909 42 35 42H41C43.2091 42 45 43.7909 45 46V55H31V46Z" stroke="black" stroke-width="6"/>
<path d="M31 21H45V29C45 31.2091 43.2091 33 41 33H35C32.7909 33 31 31.2091 31 29V21Z" stroke="black" stroke-width="6"/>
</svg>
